# xmcd
#
# Track frame offsets: 
#        225
#        12177
#        36618
#        54117
#        70110
#        87085
#        106191
#        122023
#        139278
#        152460
#        167935
#        181976
#        192524
#        209014
#        229913
#        250063
#        267071
#        282722
#        296892
#        312461
#
# Disc length: 4339 seconds
#
# Revision: 0
# Processed by: cddbd v1.5.2PL0 Copyright (c) Steve Scherf et al.
# Submitted via: ExactAudioCopy v0.99pb4
#
DISCID=2e10f014
DTITLE=Evelyn Werner - Here I Am
DYEAR=1999
DGENRE=Chanson
TTITLE0=Je ne regrette rien
TTITLE1=Here I Am
TTITLE2=Take Me Home
TTITLE3=Welcome, Hello
TTITLE4=Love Me Tender
TTITLE5=Don't Cry For Me Argentina
TTITLE6=Ich hab geträumt
TTITLE7=Summer Of My Life
TTITLE8=Think Of Me
TTITLE9=I Get A Kick Out Of You
TTITLE10=Schöner Gigolo, armer Gigolo
TTITLE11=Ich hab getanzt heut Nacht
TTITLE12=Gib mir etwas Zärtlichkeit
TTITLE13=My Heart Will Go On
TTITLE14=Somewhere
TTITLE15=Nur für mich
TTITLE16=I'll Never Gonna Give You Up
TTITLE17=Ganz Paris träumt von der Liebe
TTITLE18=Ein Häuschen im Grünen
TTITLE19=Send In The Clowns
EXTD=
EXTT0=
EXTT1=
EXTT2=
EXTT3=
EXTT4=
EXTT5=
EXTT6=
EXTT7=
EXTT8=
EXTT9=
EXTT10=
EXTT11=
EXTT12=
EXTT13=
EXTT14=
EXTT15=
EXTT16=
EXTT17=
EXTT18=
EXTT19=
PLAYORDER=
